<svg xmlns="http://www.w3.org/2000/svg" fill="none" viewBox="0 0 80 80" height="80" width="80">
<circle fill="#181818" r="40" cy="40" cx="40"></circle>
<path stroke-width="0.2" stroke="white" fill="white" d="M27.3884 52.5435L27.4615 52.6179L27.5328 52.5416L29.157 50.8014L29.2229 50.7308L29.1546 50.6624C23.5093 45.0171 23.5083 35.6826 29.1553 29.9203L29.2246 29.8496L29.1546 29.7796L27.5304 28.1554L27.4597 28.0847L27.389 28.1554C20.7367 34.8077 20.7376 45.776 27.3884 52.5435Z"></path>
<path stroke-width="0.2" stroke="white" fill="white" d="M51.7777 28.1554L51.7094 28.087L51.6388 28.153L49.8986 29.7772L49.8229 29.8478L49.8961 29.921C55.6582 35.6831 55.6572 45.0166 49.8968 50.6617L49.8247 50.7324L49.8961 50.8039L51.6363 52.5441L51.7077 52.6154L51.7784 52.5435C58.4292 45.776 58.43 34.8077 51.7777 28.1554Z"></path>
<path stroke-width="0.2" stroke="white" fill="white" d="M32.0299 47.7874L32.1006 47.8581L32.1713 47.7874L33.7955 46.1632L33.8662 46.0925L33.7955 46.0218C30.7028 42.9291 30.701 37.7708 33.7968 34.5603L33.865 34.4896L33.7955 34.4202L32.1713 32.796L32.0996 32.7243L32.0289 32.797C27.9311 37.0118 27.9297 43.6873 32.0299 47.7874Z"></path>
<path stroke-width="0.2" stroke="white" fill="white" d="M47.0201 32.795L46.9494 32.7263L46.8797 32.796L45.2555 34.4202L45.1848 34.4909L45.2555 34.5616C48.4656 37.7717 48.4637 42.9281 45.2568 46.0205L45.1835 46.0912L45.2555 46.1632L46.8797 47.7874L46.9494 47.8572L47.0201 47.7884C51.2371 43.6886 51.2371 36.8948 47.0201 32.795Z"></path>
<path stroke-width="0.2" stroke="white" fill="white" d="M39.5263 44.3369C41.7858 44.3369 43.5708 42.5519 43.5708 40.2924C43.5708 38.1469 41.7839 36.3639 39.5263 36.3639C37.3828 36.3639 35.5978 38.1489 35.5978 40.2924C35.5978 42.55 37.3808 44.3369 39.5263 44.3369ZM38.1181 40.2924C38.1181 39.5355 38.7694 38.8842 39.5263 38.8842C40.4041 38.8842 41.0505 39.5403 41.0505 40.2924C41.0505 41.1653 40.3992 41.8166 39.5263 41.8166C38.7742 41.8166 38.1181 41.1702 38.1181 40.2924Z"></path>
</svg>
