<svg xmlns="http://www.w3.org/2000/svg" fill="none" viewBox="0 0 48 49" height="49" width="48">
<path fill="black" d="M41.6783 15.1519C42.4583 14.3719 42.4583 13.1119 41.6783 12.3319L36.0183 6.67191C35.2383 5.89191 33.9783 5.89191 33.1983 6.67191L24.2183 15.6519L16.4383 7.87191C14.8783 6.31191 12.3383 6.31191 10.7783 7.87191L6.97828 11.6719C5.41828 13.2319 5.41828 15.7719 6.97828 17.3319L14.7583 25.1119L5.73828 34.1319V42.6119H14.2183L23.2583 33.5719L31.0383 41.3519C32.9383 43.2519 35.4983 42.5519 36.6983 41.3519L40.4983 37.5519C42.0583 35.9919 42.0583 33.4519 40.4983 31.8919L32.7183 24.1119L41.6783 15.1519ZM9.81828 14.4919L13.5983 10.6919L16.1383 13.2319L13.7783 15.6119L16.5983 18.4319L18.9783 16.0519L21.3783 18.4519L17.5783 22.2519L9.81828 14.4919ZM32.2783 29.3719L29.8983 31.7519L32.7183 34.5719L35.0983 32.1919L37.6383 34.7319L33.8383 38.5319L26.0583 30.7519L29.8583 26.9519L32.2783 29.3719ZM12.5583 38.6119H9.73828V35.7919L28.9583 16.5719L31.7783 19.3919L12.5583 38.6119ZM31.7783 13.7319L34.5983 10.9119L37.4183 13.7319L34.5983 16.5519L31.7783 13.7319Z"></path>
</svg>
