<svg width="304" height="40" viewBox="0 0 304 40" fill="none" xmlns="http://www.w3.org/2000/svg">
<g clip-path="url(#clip0_1652_56)">
<path d="M2.8742 5.72956C4.46157 5.72956 5.74839 4.44695 5.74839 2.86478C5.74839 1.28261 4.46157 0 2.8742 0C1.28682 0 0 1.28261 0 2.86478C0 4.44695 1.28682 5.72956 2.8742 5.72956Z" fill="#1D1D1B"/>
<path d="M2.8742 14.3038C4.46157 14.3038 5.74839 13.0212 5.74839 11.439C5.74839 9.85682 4.46157 8.57422 2.8742 8.57422C1.28682 8.57422 0 9.85682 0 11.439C0 13.0212 1.28682 14.3038 2.8742 14.3038Z" fill="#1D1D1B"/>
<path d="M8.60076 14.3038C10.1881 14.3038 11.475 13.0212 11.475 11.439C11.475 9.85682 10.1881 8.57422 8.60076 8.57422C7.01338 8.57422 5.72656 9.85682 5.72656 11.439C5.72656 13.0212 7.01338 14.3038 8.60076 14.3038Z" fill="#1D1D1B"/>
<path d="M2.8742 22.8741C4.46157 22.8741 5.74839 21.5915 5.74839 20.0093C5.74839 18.4271 4.46157 17.1445 2.8742 17.1445C1.28682 17.1445 0 18.4271 0 20.0093C0 21.5915 1.28682 22.8741 2.8742 22.8741Z" fill="#213564"/>
<path d="M14.3273 22.8741C15.9147 22.8741 17.2015 21.5915 17.2015 20.0093C17.2015 18.4271 15.9147 17.1445 14.3273 17.1445C12.7399 17.1445 11.4531 18.4271 11.4531 20.0093C11.4531 21.5915 12.7399 22.8741 14.3273 22.8741Z" fill="#1D1D1B"/>
<path d="M2.8742 31.4483C4.46157 31.4483 5.74839 30.1657 5.74839 28.5835C5.74839 27.0014 4.46157 25.7188 2.8742 25.7188C1.28682 25.7188 0 27.0014 0 28.5835C0 30.1657 1.28682 31.4483 2.8742 31.4483Z" fill="#1D1D1B"/>
<path d="M2.8742 40.0225C4.46157 40.0225 5.74839 38.7399 5.74839 37.1577C5.74839 35.5756 4.46157 34.293 2.8742 34.293C1.28682 34.293 0 35.5756 0 37.1577C0 38.7399 1.28682 40.0225 2.8742 40.0225Z" fill="#1D1D1B"/>
<path d="M25.8039 5.72956C27.3913 5.72956 28.6781 4.44695 28.6781 2.86478C28.6781 1.28261 27.3913 0 25.8039 0C24.2165 0 22.9297 1.28261 22.9297 2.86478C22.9297 4.44695 24.2165 5.72956 25.8039 5.72956Z" fill="#1D1D1B"/>
<path d="M43.0051 5.72956C44.5924 5.72956 45.8793 4.44695 45.8793 2.86478C45.8793 1.28261 44.5924 0 43.0051 0C41.4177 0 40.1309 1.28261 40.1309 2.86478C40.1309 4.44695 41.4177 5.72956 43.0051 5.72956Z" fill="#1D1D1B"/>
<path d="M48.7551 5.72956C50.3424 5.72956 51.6293 4.44695 51.6293 2.86478C51.6293 1.28261 50.3424 0 48.7551 0C47.1677 0 45.8809 1.28261 45.8809 2.86478C45.8809 4.44695 47.1677 5.72956 48.7551 5.72956Z" fill="#1D1D1B"/>
<path d="M54.4816 5.72956C56.069 5.72956 57.3558 4.44695 57.3558 2.86478C57.3558 1.28261 56.069 0 54.4816 0C52.8942 0 51.6074 1.28261 51.6074 2.86478C51.6074 4.44695 52.8942 5.72956 54.4816 5.72956Z" fill="#1D1D1B"/>
<path d="M71.7043 5.72956C73.2917 5.72956 74.5785 4.44695 74.5785 2.86478C74.5785 1.28261 73.2917 0 71.7043 0C70.1169 0 68.8301 1.28261 68.8301 2.86478C68.8301 4.44695 70.1169 5.72956 71.7043 5.72956Z" fill="#213564"/>
<path d="M77.4308 5.72956C79.0182 5.72956 80.305 4.44695 80.305 2.86478C80.305 1.28261 79.0182 0 77.4308 0C75.8435 0 74.5566 1.28261 74.5566 2.86478C74.5566 4.44695 75.8435 5.72956 77.4308 5.72956Z" fill="#1D1D1B"/>
<path d="M83.1594 5.72956C84.7467 5.72956 86.0336 4.44695 86.0336 2.86478C86.0336 1.28261 84.7467 0 83.1594 0C81.572 0 80.2852 1.28261 80.2852 2.86478C80.2852 4.44695 81.572 5.72956 83.1594 5.72956Z" fill="#C91430"/>
<path d="M83.1594 14.3038C84.7467 14.3038 86.0336 13.0212 86.0336 11.439C86.0336 9.85682 84.7467 8.57422 83.1594 8.57422C81.572 8.57422 80.2852 9.85682 80.2852 11.439C80.2852 13.0212 81.572 14.3038 83.1594 14.3038Z" fill="#1D1D1B"/>
<path d="M83.1594 22.8741C84.7467 22.8741 86.0336 21.5915 86.0336 20.0093C86.0336 18.4271 84.7467 17.1445 83.1594 17.1445C81.572 17.1445 80.2852 18.4271 80.2852 20.0093C80.2852 21.5915 81.572 22.8741 83.1594 22.8741Z" fill="#FEC605"/>
<path d="M83.1594 31.4483C84.7467 31.4483 86.0336 30.1657 86.0336 28.5835C86.0336 27.0014 84.7467 25.7188 83.1594 25.7188C81.572 25.7188 80.2852 27.0014 80.2852 28.5835C80.2852 30.1657 81.572 31.4483 83.1594 31.4483Z" fill="#1D1D1B"/>
<path d="M83.1594 40.0225C84.7467 40.0225 86.0336 38.7399 86.0336 37.1577C86.0336 35.5756 84.7467 34.293 83.1594 34.293C81.572 34.293 80.2852 35.5756 80.2852 37.1577C80.2852 38.7399 81.572 40.0225 83.1594 40.0225Z" fill="#1D1D1B"/>
<path d="M106.109 5.72956C107.696 5.72956 108.983 4.44695 108.983 2.86478C108.983 1.28261 107.696 0 106.109 0C104.521 0 103.234 1.28261 103.234 2.86478C103.234 4.44695 104.521 5.72956 106.109 5.72956Z" fill="#1D1D1B"/>
<path d="M106.109 14.3038C107.696 14.3038 108.983 13.0212 108.983 11.439C108.983 9.85682 107.696 8.57422 106.109 8.57422C104.521 8.57422 103.234 9.85682 103.234 11.439C103.234 13.0212 104.521 14.3038 106.109 14.3038Z" fill="#213564"/>
<path d="M106.109 22.8741C107.696 22.8741 108.983 21.5915 108.983 20.0093C108.983 18.4271 107.696 17.1445 106.109 17.1445C104.521 17.1445 103.234 18.4271 103.234 20.0093C103.234 21.5915 104.521 22.8741 106.109 22.8741Z" fill="#1D1D1B"/>
<path d="M106.109 31.4483C107.696 31.4483 108.983 30.1657 108.983 28.5835C108.983 27.0014 107.696 25.7188 106.109 25.7188C104.521 25.7188 103.234 27.0014 103.234 28.5835C103.234 30.1657 104.521 31.4483 106.109 31.4483Z" fill="#FEC605"/>
<path d="M106.109 40.0225C107.696 40.0225 108.983 38.7399 108.983 37.1577C108.983 35.5756 107.696 34.293 106.109 34.293C104.521 34.293 103.234 35.5756 103.234 37.1577C103.234 38.7399 104.521 40.0225 106.109 40.0225Z" fill="#1D1D1B"/>
<path d="M129.038 5.72956C130.626 5.72956 131.912 4.44695 131.912 2.86478C131.912 1.28261 130.626 0 129.038 0C127.451 0 126.164 1.28261 126.164 2.86478C126.164 4.44695 127.451 5.72956 129.038 5.72956Z" fill="#1D1D1B"/>
<path d="M129.038 14.3038C130.626 14.3038 131.912 13.0212 131.912 11.439C131.912 9.85682 130.626 8.57422 129.038 8.57422C127.451 8.57422 126.164 9.85682 126.164 11.439C126.164 13.0212 127.451 14.3038 129.038 14.3038Z" fill="#1D1D1B"/>
<path d="M129.038 22.8741C130.626 22.8741 131.912 21.5915 131.912 20.0093C131.912 18.4271 130.626 17.1445 129.038 17.1445C127.451 17.1445 126.164 18.4271 126.164 20.0093C126.164 21.5915 127.451 22.8741 129.038 22.8741Z" fill="#1D1D1B"/>
<path d="M123.312 22.8741C124.899 22.8741 126.186 21.5915 126.186 20.0093C126.186 18.4271 124.899 17.1445 123.312 17.1445C121.724 17.1445 120.438 18.4271 120.438 20.0093C120.438 21.5915 121.724 22.8741 123.312 22.8741Z" fill="#C91430"/>
<path d="M117.585 22.8741C119.173 22.8741 120.459 21.5915 120.459 20.0093C120.459 18.4271 119.173 17.1445 117.585 17.1445C115.998 17.1445 114.711 18.4271 114.711 20.0093C114.711 21.5915 115.998 22.8741 117.585 22.8741Z" fill="#1D1D1B"/>
<path d="M111.859 22.8741C113.446 22.8741 114.733 21.5915 114.733 20.0093C114.733 18.4271 113.446 17.1445 111.859 17.1445C110.271 17.1445 108.984 18.4271 108.984 20.0093C108.984 21.5915 110.271 22.8741 111.859 22.8741Z" fill="#1D1D1B"/>
<path d="M129.038 31.4483C130.626 31.4483 131.912 30.1657 131.912 28.5835C131.912 27.0014 130.626 25.7188 129.038 25.7188C127.451 25.7188 126.164 27.0014 126.164 28.5835C126.164 30.1657 127.451 31.4483 129.038 31.4483Z" fill="#213564"/>
<path d="M129.038 40.0225C130.626 40.0225 131.912 38.7399 131.912 37.1577C131.912 35.5756 130.626 34.293 129.038 34.293C127.451 34.293 126.164 35.5756 126.164 37.1577C126.164 38.7399 127.451 40.0225 129.038 40.0225Z" fill="#1D1D1B"/>
<path d="M146.263 5.72956C147.85 5.72956 149.137 4.44695 149.137 2.86478C149.137 1.28261 147.85 0 146.263 0C144.676 0 143.389 1.28261 143.389 2.86478C143.389 4.44695 144.676 5.72956 146.263 5.72956Z" fill="#1D1D1B"/>
<path d="M140.536 5.72956C142.124 5.72956 143.411 4.44695 143.411 2.86478C143.411 1.28261 142.124 0 140.536 0C138.949 0 137.662 1.28261 137.662 2.86478C137.662 4.44695 138.949 5.72956 140.536 5.72956Z" fill="#FEC605"/>
<path d="M151.989 5.72956C153.577 5.72956 154.864 4.44695 154.864 2.86478C154.864 1.28261 153.577 0 151.989 0C150.402 0 149.115 1.28261 149.115 2.86478C149.115 4.44695 150.402 5.72956 151.989 5.72956Z" fill="#1D1D1B"/>
<path d="M151.989 39.9991C153.577 39.9991 154.864 38.7165 154.864 37.1343C154.864 35.5521 153.577 34.2695 151.989 34.2695C150.402 34.2695 149.115 35.5521 149.115 37.1343C149.115 38.7165 150.402 39.9991 151.989 39.9991Z" fill="#C91430"/>
<path d="M140.536 39.9991C142.124 39.9991 143.411 38.7165 143.411 37.1343C143.411 35.5521 142.124 34.2695 140.536 34.2695C138.949 34.2695 137.662 35.5521 137.662 37.1343C137.662 38.7165 138.949 39.9991 140.536 39.9991Z" fill="#1D1D1B"/>
<path d="M146.263 14.3038C147.85 14.3038 149.137 13.0212 149.137 11.439C149.137 9.85682 147.85 8.57422 146.263 8.57422C144.676 8.57422 143.389 9.85682 143.389 11.439C143.389 13.0212 144.676 14.3038 146.263 14.3038Z" fill="#1D1D1B"/>
<path d="M146.263 22.8741C147.85 22.8741 149.137 21.5915 149.137 20.0093C149.137 18.4271 147.85 17.1445 146.263 17.1445C144.676 17.1445 143.389 18.4271 143.389 20.0093C143.389 21.5915 144.676 22.8741 146.263 22.8741Z" fill="#1D1D1B"/>
<path d="M146.263 31.4483C147.85 31.4483 149.137 30.1657 149.137 28.5835C149.137 27.0014 147.85 25.7188 146.263 25.7188C144.676 25.7188 143.389 27.0014 143.389 28.5835C143.389 30.1657 144.676 31.4483 146.263 31.4483Z" fill="#1D1D1B"/>
<path d="M146.263 40.0225C147.85 40.0225 149.137 38.7399 149.137 37.1577C149.137 35.5756 147.85 34.293 146.263 34.293C144.676 34.293 143.389 35.5756 143.389 37.1577C143.389 38.7399 144.676 40.0225 146.263 40.0225Z" fill="#1D1D1B"/>
<path d="M163.486 5.72956C165.073 5.72956 166.36 4.44695 166.36 2.86478C166.36 1.28261 165.073 0 163.486 0C161.898 0 160.611 1.28261 160.611 2.86478C160.611 4.44695 161.898 5.72956 163.486 5.72956Z" fill="#C91430"/>
<path d="M163.486 14.3038C165.073 14.3038 166.36 13.0212 166.36 11.439C166.36 9.85682 165.073 8.57422 163.486 8.57422C161.898 8.57422 160.611 9.85682 160.611 11.439C160.611 13.0212 161.898 14.3038 163.486 14.3038Z" fill="#213564"/>
<path d="M169.212 14.3038C170.799 14.3038 172.086 13.0212 172.086 11.439C172.086 9.85682 170.799 8.57422 169.212 8.57422C167.625 8.57422 166.338 9.85682 166.338 11.439C166.338 13.0212 167.625 14.3038 169.212 14.3038Z" fill="#1D1D1B"/>
<path d="M163.486 22.8741C165.073 22.8741 166.36 21.5915 166.36 20.0093C166.36 18.4271 165.073 17.1445 163.486 17.1445C161.898 17.1445 160.611 18.4271 160.611 20.0093C160.611 21.5915 161.898 22.8741 163.486 22.8741Z" fill="#1D1D1B"/>
<path d="M174.941 22.8741C176.528 22.8741 177.815 21.5915 177.815 20.0093C177.815 18.4271 176.528 17.1445 174.941 17.1445C173.353 17.1445 172.066 18.4271 172.066 20.0093C172.066 21.5915 173.353 22.8741 174.941 22.8741Z" fill="#1D1D1B"/>
<path d="M163.486 31.4483C165.073 31.4483 166.36 30.1657 166.36 28.5835C166.36 27.0014 165.073 25.7188 163.486 25.7188C161.898 25.7188 160.611 27.0014 160.611 28.5835C160.611 30.1657 161.898 31.4483 163.486 31.4483Z" fill="#FEC605"/>
<path d="M163.486 40.0225C165.073 40.0225 166.36 38.7399 166.36 37.1577C166.36 35.5756 165.073 34.293 163.486 34.293C161.898 34.293 160.611 35.5756 160.611 37.1577C160.611 38.7399 161.898 40.0225 163.486 40.0225Z" fill="#1D1D1B"/>
<path d="M186.415 5.72956C188.003 5.72956 189.289 4.44695 189.289 2.86478C189.289 1.28261 188.003 0 186.415 0C184.828 0 183.541 1.28261 183.541 2.86478C183.541 4.44695 184.828 5.72956 186.415 5.72956Z" fill="#1D1D1B"/>
<path d="M203.618 5.72956C205.206 5.72956 206.493 4.44695 206.493 2.86478C206.493 1.28261 205.206 0 203.618 0C202.031 0 200.744 1.28261 200.744 2.86478C200.744 4.44695 202.031 5.72956 203.618 5.72956Z" fill="#FEC605"/>
<path d="M209.366 5.72956C210.954 5.72956 212.241 4.44695 212.241 2.86478C212.241 1.28261 210.954 0 209.366 0C207.779 0 206.492 1.28261 206.492 2.86478C206.492 4.44695 207.779 5.72956 209.366 5.72956Z" fill="#1D1D1B"/>
<path d="M215.093 5.72956C216.68 5.72956 217.967 4.44695 217.967 2.86478C217.967 1.28261 216.68 0 215.093 0C213.506 0 212.219 1.28261 212.219 2.86478C212.219 4.44695 213.506 5.72956 215.093 5.72956Z" fill="#1D1D1B"/>
<path d="M220.82 5.72956C222.407 5.72956 223.694 4.44695 223.694 2.86478C223.694 1.28261 222.407 0 220.82 0C219.232 0 217.945 1.28261 217.945 2.86478C217.945 4.44695 219.232 5.72956 220.82 5.72956Z" fill="#213564"/>
<path d="M209.366 22.8741C210.954 22.8741 212.241 21.5915 212.241 20.0093C212.241 18.4271 210.954 17.1445 209.366 17.1445C207.779 17.1445 206.492 18.4271 206.492 20.0093C206.492 21.5915 207.779 22.8741 209.366 22.8741Z" fill="#FEC605"/>
<path d="M215.093 22.8741C216.68 22.8741 217.967 21.5915 217.967 20.0093C217.967 18.4271 216.68 17.1445 215.093 17.1445C213.506 17.1445 212.219 18.4271 212.219 20.0093C212.219 21.5915 213.506 22.8741 215.093 22.8741Z" fill="#1D1D1B"/>
<path d="M220.82 22.8741C222.407 22.8741 223.694 21.5915 223.694 20.0093C223.694 18.4271 222.407 17.1445 220.82 17.1445C219.232 17.1445 217.945 18.4271 217.945 20.0093C217.945 21.5915 219.232 22.8741 220.82 22.8741Z" fill="#1D1D1B"/>
<path d="M220.82 31.4288C222.407 31.4288 223.694 30.1462 223.694 28.564C223.694 26.9818 222.407 25.6992 220.82 25.6992C219.232 25.6992 217.945 26.9818 217.945 28.564C217.945 30.1462 219.232 31.4288 220.82 31.4288Z" fill="#1D1D1B"/>
<path d="M203.618 39.9991C205.206 39.9991 206.493 38.7165 206.493 37.1343C206.493 35.5521 205.206 34.2695 203.618 34.2695C202.031 34.2695 200.744 35.5521 200.744 37.1343C200.744 38.7165 202.031 39.9991 203.618 39.9991Z" fill="#1D1D1B"/>
<path d="M209.366 39.9991C210.954 39.9991 212.241 38.7165 212.241 37.1343C212.241 35.5521 210.954 34.2695 209.366 34.2695C207.779 34.2695 206.492 35.5521 206.492 37.1343C206.492 38.7165 207.779 39.9991 209.366 39.9991Z" fill="#1D1D1B"/>
<path d="M215.093 39.9991C216.68 39.9991 217.967 38.7165 217.967 37.1343C217.967 35.5521 216.68 34.2695 215.093 34.2695C213.506 34.2695 212.219 35.5521 212.219 37.1343C212.219 38.7165 213.506 39.9991 215.093 39.9991Z" fill="#1D1D1B"/>
<path d="M186.415 14.3038C188.003 14.3038 189.289 13.0212 189.289 11.439C189.289 9.85682 188.003 8.57422 186.415 8.57422C184.828 8.57422 183.541 9.85682 183.541 11.439C183.541 13.0212 184.828 14.3038 186.415 14.3038Z" fill="#1D1D1B"/>
<path d="M186.415 22.8741C188.003 22.8741 189.289 21.5915 189.289 20.0093C189.289 18.4271 188.003 17.1445 186.415 17.1445C184.828 17.1445 183.541 18.4271 183.541 20.0093C183.541 21.5915 184.828 22.8741 186.415 22.8741Z" fill="#1D1D1B"/>
<path d="M186.415 31.4483C188.003 31.4483 189.289 30.1657 189.289 28.5835C189.289 27.0014 188.003 25.7188 186.415 25.7188C184.828 25.7188 183.541 27.0014 183.541 28.5835C183.541 30.1657 184.828 31.4483 186.415 31.4483Z" fill="#213564"/>
<path d="M197.89 14.3038C199.477 14.3038 200.764 13.0212 200.764 11.439C200.764 9.85682 199.477 8.57422 197.89 8.57422C196.302 8.57422 195.016 9.85682 195.016 11.439C195.016 13.0212 196.302 14.3038 197.89 14.3038Z" fill="#1D1D1B"/>
<path d="M197.89 22.8741C199.477 22.8741 200.764 21.5915 200.764 20.0093C200.764 18.4271 199.477 17.1445 197.89 17.1445C196.302 17.1445 195.016 18.4271 195.016 20.0093C195.016 21.5915 196.302 22.8741 197.89 22.8741Z" fill="#C91430"/>
<path d="M197.89 31.4483C199.477 31.4483 200.764 30.1657 200.764 28.5835C200.764 27.0014 199.477 25.7188 197.89 25.7188C196.302 25.7188 195.016 27.0014 195.016 28.5835C195.016 30.1657 196.302 31.4483 197.89 31.4483Z" fill="#1D1D1B"/>
<path d="M180.667 31.4483C182.255 31.4483 183.541 30.1657 183.541 28.5835C183.541 27.0014 182.255 25.7188 180.667 25.7188C179.08 25.7188 177.793 27.0014 177.793 28.5835C177.793 30.1657 179.08 31.4483 180.667 31.4483Z" fill="#1D1D1B"/>
<path d="M186.415 40.0225C188.003 40.0225 189.289 38.7399 189.289 37.1577C189.289 35.5756 188.003 34.293 186.415 34.293C184.828 34.293 183.541 35.5756 183.541 37.1577C183.541 38.7399 184.828 40.0225 186.415 40.0225Z" fill="#1D1D1B"/>
<path d="M260.993 5.72956C262.581 5.72956 263.868 4.44695 263.868 2.86478C263.868 1.28261 262.581 0 260.993 0C259.406 0 258.119 1.28261 258.119 2.86478C258.119 4.44695 259.406 5.72956 260.993 5.72956Z" fill="#1D1D1B"/>
<path d="M249.519 5.72956C251.106 5.72956 252.393 4.44695 252.393 2.86478C252.393 1.28261 251.106 0 249.519 0C247.931 0 246.645 1.28261 246.645 2.86478C246.645 4.44695 247.931 5.72956 249.519 5.72956Z" fill="#1D1D1B"/>
<path d="M266.722 5.72956C268.309 5.72956 269.596 4.44695 269.596 2.86478C269.596 1.28261 268.309 0 266.722 0C265.134 0 263.848 1.28261 263.848 2.86478C263.848 4.44695 265.134 5.72956 266.722 5.72956Z" fill="#C91430"/>
<path d="M272.448 5.72956C274.036 5.72956 275.323 4.44695 275.323 2.86478C275.323 1.28261 274.036 0 272.448 0C270.861 0 269.574 1.28261 269.574 2.86478C269.574 4.44695 270.861 5.72956 272.448 5.72956Z" fill="#1D1D1B"/>
<path d="M278.175 5.72956C279.762 5.72956 281.049 4.44695 281.049 2.86478C281.049 1.28261 279.762 0 278.175 0C276.588 0 275.301 1.28261 275.301 2.86478C275.301 4.44695 276.588 5.72956 278.175 5.72956Z" fill="#1D1D1B"/>
<path d="M295.4 5.72956C296.987 5.72956 298.274 4.44695 298.274 2.86478C298.274 1.28261 296.987 0 295.4 0C293.812 0 292.525 1.28261 292.525 2.86478C292.525 4.44695 293.812 5.72956 295.4 5.72956Z" fill="#1D1D1B"/>
<path d="M260.993 14.3038C262.581 14.3038 263.868 13.0212 263.868 11.439C263.868 9.85682 262.581 8.57422 260.993 8.57422C259.406 8.57422 258.119 9.85682 258.119 11.439C258.119 13.0212 259.406 14.3038 260.993 14.3038Z" fill="#1D1D1B"/>
<path d="M283.945 14.3038C285.532 14.3038 286.819 13.0212 286.819 11.439C286.819 9.85682 285.532 8.57422 283.945 8.57422C282.357 8.57422 281.07 9.85682 281.07 11.439C281.07 13.0212 282.357 14.3038 283.945 14.3038Z" fill="#1D1D1B"/>
<path d="M260.993 22.8741C262.581 22.8741 263.868 21.5915 263.868 20.0093C263.868 18.4271 262.581 17.1445 260.993 17.1445C259.406 17.1445 258.119 18.4271 258.119 20.0093C258.119 21.5915 259.406 22.8741 260.993 22.8741Z" fill="#1D1D1B"/>
<path d="M266.722 22.8741C268.309 22.8741 269.596 21.5915 269.596 20.0093C269.596 18.4271 268.309 17.1445 266.722 17.1445C265.134 17.1445 263.848 18.4271 263.848 20.0093C263.848 21.5915 265.134 22.8741 266.722 22.8741Z" fill="#1D1D1B"/>
<path d="M272.448 22.8741C274.036 22.8741 275.323 21.5915 275.323 20.0093C275.323 18.4271 274.036 17.1445 272.448 17.1445C270.861 17.1445 269.574 18.4271 269.574 20.0093C269.574 21.5915 270.861 22.8741 272.448 22.8741Z" fill="#FEC605"/>
<path d="M278.175 22.8741C279.762 22.8741 281.049 21.5915 281.049 20.0093C281.049 18.4271 279.762 17.1445 278.175 17.1445C276.588 17.1445 275.301 18.4271 275.301 20.0093C275.301 21.5915 276.588 22.8741 278.175 22.8741Z" fill="#1D1D1B"/>
<path d="M260.993 31.4483C262.581 31.4483 263.868 30.1657 263.868 28.5835C263.868 27.0014 262.581 25.7188 260.993 25.7188C259.406 25.7188 258.119 27.0014 258.119 28.5835C258.119 30.1657 259.406 31.4483 260.993 31.4483Z" fill="#213564"/>
<path d="M278.196 31.4483C279.784 31.4483 281.071 30.1657 281.071 28.5835C281.071 27.0014 279.784 25.7188 278.196 25.7188C276.609 25.7188 275.322 27.0014 275.322 28.5835C275.322 30.1657 276.609 31.4483 278.196 31.4483Z" fill="#1D1D1B"/>
<path d="M243.771 14.3038C245.358 14.3038 246.645 13.0212 246.645 11.439C246.645 9.85682 245.358 8.57422 243.771 8.57422C242.183 8.57422 240.896 9.85682 240.896 11.439C240.896 13.0212 242.183 14.3038 243.771 14.3038Z" fill="#1D1D1B"/>
<path d="M243.771 22.8741C245.358 22.8741 246.645 21.5915 246.645 20.0093C246.645 18.4271 245.358 17.1445 243.771 17.1445C242.183 17.1445 240.896 18.4271 240.896 20.0093C240.896 21.5915 242.183 22.8741 243.771 22.8741Z" fill="#1D1D1B"/>
<path d="M243.771 31.4483C245.358 31.4483 246.645 30.1657 246.645 28.5835C246.645 27.0014 245.358 25.7188 243.771 25.7188C242.183 25.7188 240.896 27.0014 240.896 28.5835C240.896 30.1657 242.183 31.4483 243.771 31.4483Z" fill="#1D1D1B"/>
<path d="M301.148 14.3038C302.735 14.3038 304.022 13.0212 304.022 11.439C304.022 9.85682 302.735 8.57422 301.148 8.57422C299.56 8.57422 298.273 9.85682 298.273 11.439C298.273 13.0212 299.56 14.3038 301.148 14.3038Z" fill="#213564"/>
<path d="M301.148 22.8741C302.735 22.8741 304.022 21.5915 304.022 20.0093C304.022 18.4271 302.735 17.1445 301.148 17.1445C299.56 17.1445 298.273 18.4271 298.273 20.0093C298.273 21.5915 299.56 22.8741 301.148 22.8741Z" fill="#C91430"/>
<path d="M301.148 31.4483C302.735 31.4483 304.022 30.1657 304.022 28.5835C304.022 27.0014 302.735 25.7188 301.148 25.7188C299.56 25.7188 298.273 27.0014 298.273 28.5835C298.273 30.1657 299.56 31.4483 301.148 31.4483Z" fill="#1D1D1B"/>
<path d="M260.993 40.0225C262.581 40.0225 263.868 38.7399 263.868 37.1577C263.868 35.5756 262.581 34.293 260.993 34.293C259.406 34.293 258.119 35.5756 258.119 37.1577C258.119 38.7399 259.406 40.0225 260.993 40.0225Z" fill="#1D1D1B"/>
<path d="M249.519 40.0225C251.106 40.0225 252.393 38.7399 252.393 37.1577C252.393 35.5756 251.106 34.293 249.519 34.293C247.931 34.293 246.645 35.5756 246.645 37.1577C246.645 38.7399 247.931 40.0225 249.519 40.0225Z" fill="#C91430"/>
<path d="M283.923 40.0225C285.51 40.0225 286.797 38.7399 286.797 37.1577C286.797 35.5756 285.51 34.293 283.923 34.293C282.336 34.293 281.049 35.5756 281.049 37.1577C281.049 38.7399 282.336 40.0225 283.923 40.0225Z" fill="#1D1D1B"/>
<path d="M295.4 40.0225C296.987 40.0225 298.274 38.7399 298.274 37.1577C298.274 35.5756 296.987 34.293 295.4 34.293C293.812 34.293 292.525 35.5756 292.525 37.1577C292.525 38.7399 293.812 40.0225 295.4 40.0225Z" fill="#FEC605"/>
<path d="M88.9074 5.72956C90.4948 5.72956 91.7816 4.44695 91.7816 2.86478C91.7816 1.28261 90.4948 0 88.9074 0C87.32 0 86.0332 1.28261 86.0332 2.86478C86.0332 4.44695 87.32 5.72956 88.9074 5.72956Z" fill="#1D1D1B"/>
<path d="M94.634 5.72956C96.2213 5.72956 97.5082 4.44695 97.5082 2.86478C97.5082 1.28261 96.2213 0 94.634 0C93.0466 0 91.7598 1.28261 91.7598 2.86478C91.7598 4.44695 93.0466 5.72956 94.634 5.72956Z" fill="#1D1D1B"/>
<path d="M43.0051 39.9991C44.5924 39.9991 45.8793 38.7165 45.8793 37.1343C45.8793 35.5521 44.5924 34.2695 43.0051 34.2695C41.4177 34.2695 40.1309 35.5521 40.1309 37.1343C40.1309 38.7165 41.4177 39.9991 43.0051 39.9991Z" fill="#C91430"/>
<path d="M48.7551 39.9991C50.3424 39.9991 51.6293 38.7165 51.6293 37.1343C51.6293 35.5521 50.3424 34.2695 48.7551 34.2695C47.1677 34.2695 45.8809 35.5521 45.8809 37.1343C45.8809 38.7165 47.1677 39.9991 48.7551 39.9991Z" fill="#1D1D1B"/>
<path d="M54.4816 39.9991C56.069 39.9991 57.3558 38.7165 57.3558 37.1343C57.3558 35.5521 56.069 34.2695 54.4816 34.2695C52.8942 34.2695 51.6074 35.5521 51.6074 37.1343C51.6074 38.7165 52.8942 39.9991 54.4816 39.9991Z" fill="#1D1D1B"/>
<path d="M25.8039 14.3038C27.3913 14.3038 28.6781 13.0212 28.6781 11.439C28.6781 9.85682 27.3913 8.57422 25.8039 8.57422C24.2165 8.57422 22.9297 9.85682 22.9297 11.439C22.9297 13.0212 24.2165 14.3038 25.8039 14.3038Z" fill="#FEC605"/>
<path d="M25.8039 22.8741C27.3913 22.8741 28.6781 21.5915 28.6781 20.0093C28.6781 18.4271 27.3913 17.1445 25.8039 17.1445C24.2165 17.1445 22.9297 18.4271 22.9297 20.0093C22.9297 21.5915 24.2165 22.8741 25.8039 22.8741Z" fill="#1D1D1B"/>
<path d="M25.8039 31.4483C27.3913 31.4483 28.6781 30.1657 28.6781 28.5835C28.6781 27.0014 27.3913 25.7188 25.8039 25.7188C24.2165 25.7188 22.9297 27.0014 22.9297 28.5835C22.9297 30.1657 24.2165 31.4483 25.8039 31.4483Z" fill="#1D1D1B"/>
<path d="M37.2785 14.3038C38.8659 14.3038 40.1527 13.0212 40.1527 11.439C40.1527 9.85682 38.8659 8.57422 37.2785 8.57422C35.6911 8.57422 34.4043 9.85682 34.4043 11.439C34.4043 13.0212 35.6911 14.3038 37.2785 14.3038Z" fill="#1D1D1B"/>
<path d="M37.2785 22.8741C38.8659 22.8741 40.1527 21.5915 40.1527 20.0093C40.1527 18.4271 38.8659 17.1445 37.2785 17.1445C35.6911 17.1445 34.4043 18.4271 34.4043 20.0093C34.4043 21.5915 35.6911 22.8741 37.2785 22.8741Z" fill="#1D1D1B"/>
<path d="M37.2785 31.4483C38.8659 31.4483 40.1527 30.1657 40.1527 28.5835C40.1527 27.0014 38.8659 25.7188 37.2785 25.7188C35.6911 25.7188 34.4043 27.0014 34.4043 28.5835C34.4043 30.1657 35.6911 31.4483 37.2785 31.4483Z" fill="#1D1D1B"/>
<path d="M60.2082 14.3038C61.7956 14.3038 63.0824 13.0212 63.0824 11.439C63.0824 9.85682 61.7956 8.57422 60.2082 8.57422C58.6208 8.57422 57.334 9.85682 57.334 11.439C57.334 13.0212 58.6208 14.3038 60.2082 14.3038Z" fill="#1D1D1B"/>
<path d="M60.2082 22.8741C61.7956 22.8741 63.0824 21.5915 63.0824 20.0093C63.0824 18.4271 61.7956 17.1445 60.2082 17.1445C58.6208 17.1445 57.334 18.4271 57.334 20.0093C57.334 21.5915 58.6208 22.8741 60.2082 22.8741Z" fill="#1D1D1B"/>
<path d="M60.2082 31.4483C61.7956 31.4483 63.0824 30.1657 63.0824 28.5835C63.0824 27.0014 61.7956 25.7188 60.2082 25.7188C58.6208 25.7188 57.334 27.0014 57.334 28.5835C57.334 30.1657 58.6208 31.4483 60.2082 31.4483Z" fill="#213564"/>
<path d="M20.0773 31.4483C21.6647 31.4483 22.9515 30.1657 22.9515 28.5835C22.9515 27.0014 21.6647 25.7188 20.0773 25.7188C18.4899 25.7188 17.2031 27.0014 17.2031 28.5835C17.2031 30.1657 18.4899 31.4483 20.0773 31.4483Z" fill="#C91430"/>
<path d="M25.8039 40.0225C27.3913 40.0225 28.6781 38.7399 28.6781 37.1577C28.6781 35.5756 27.3913 34.293 25.8039 34.293C24.2165 34.293 22.9297 35.5756 22.9297 37.1577C22.9297 38.7399 24.2165 40.0225 25.8039 40.0225Z" fill="#1D1D1B"/>
</g>
<defs>
<clipPath id="clip0_1652_56">
<rect width="304" height="40" fill="white"/>
</clipPath>
</defs>
</svg>
